<svg xmlns="http://www.w3.org/2000/svg" width="271.994" height="228" viewBox="0 0 271.994 228">
  <g id="Group_2081" data-name="Group 2081" transform="translate(-850.006 -129)">
    <path id="Path_1522" data-name="Path 1522" d="M-8210.811,18339.408c-15.145,20.074-64.086,31.6-30.842,69.535s157.595,143.105,221.754,36.908-7.6-139.713-82.132-116.686S-8195.666,18319.336-8210.811,18339.408Z" transform="translate(9103 -18135.15)" fill="#ffefed"/>
    <rect id="Rectangle_453" data-name="Rectangle 453" width="159" height="205" rx="8" transform="translate(900 129)" fill="#cfe0f8"/>
    <rect id="Rectangle_454" data-name="Rectangle 454" width="141" height="147" rx="8" transform="translate(909 178)" fill="#fff"/>
    <path id="Rectangle_455" data-name="Rectangle 455" d="M0,0H141a0,0,0,0,1,0,0V30a8,8,0,0,1-8,8H8a8,8,0,0,1-8-8V0A0,0,0,0,1,0,0Z" transform="translate(909 287)" fill="#edf5ff"/>
    <g id="Group_2077" data-name="Group 2077" transform="translate(923.529 152.765)">
      <circle id="Ellipse_443" data-name="Ellipse 443" cx="23.879" cy="23.879" r="23.879" transform="translate(1.56 1.504)" fill="#edf5ff"/>
      <path id="Ellipse_445" data-name="Ellipse 445" d="M25.412,3.9A21.515,21.515,0,1,0,46.926,25.412,21.539,21.539,0,0,0,25.412,3.9m0-3.9A25.412,25.412,0,1,1,0,25.412,25.412,25.412,0,0,1,25.412,0Z" transform="translate(0)" fill="#ddecff"/>
      <path id="Fill-1" d="M10.461,26.273a15.425,15.425,0,0,1-7.13-5.826A19.528,19.528,0,0,1,0,9.4V1.367A1.134,1.134,0,0,1,1.13.229H22.447a1.134,1.134,0,0,1,1.13,1.138V9.4a19.528,19.528,0,0,1-3.331,11.047,15.427,15.427,0,0,1-7.13,5.826l-1.327.427Z" transform="translate(13.643 13.287)" fill="#abd1ff" fill-rule="evenodd"/>
      <path id="Fill-4" d="M14.619,7.411H7.288A.887.887,0,0,0,6.4,8.3v6.261a15.129,15.129,0,0,0,2.617,8.61,12.1,12.1,0,0,0,5.6,4.54l1.043.333V7.411Z" transform="translate(9.91 9.097)" fill="#77b4f2" fill-rule="evenodd"/>
      <path id="Fill-6" d="M24.648,18.908q.709,0,1.177-.045v.306a2,2,0,0,0-.761.586,3.916,3.916,0,0,0-.664,1.236L21.14,29.726,20.6,30.933l-.521-1.207-3.945-9.578a1.862,1.862,0,0,0-.457-.736.87.87,0,0,0-.517-.243v-.306q.928.045,2.354.045,1.577,0,2.347-.045v.306a2.375,2.375,0,0,0-.834.138.43.43,0,0,0-.253.43,2.194,2.194,0,0,0,.189.717L21.683,27.3l1.9-5.072a6.041,6.041,0,0,0,.43-1.868,1.112,1.112,0,0,0-.329-.893,1.541,1.541,0,0,0-.969-.3v-.306q1.041.045,1.931.045" transform="translate(4.801 2.417)" fill="#03233a" fill-rule="evenodd"/>
      <path id="Ellipse_446" data-name="Ellipse 446" d="M18.865-2c.654,0,1.314.031,1.961.091a.162.162,0,0,1,.147.177.162.162,0,0,1-.177.147c-.637-.059-1.287-.09-1.931-.09-.493,0-.991.018-1.481.053a.162.162,0,0,1-.174-.15.162.162,0,0,1,.15-.174C17.858-1.982,18.364-2,18.865-2Zm-3.427.282a.162.162,0,0,1,.16.136.162.162,0,0,1-.133.187c-.634.106-1.269.243-1.889.407a.162.162,0,0,1-.2-.115.162.162,0,0,1,.115-.2c.63-.167,1.275-.307,1.919-.414Zm7.3.08.03,0c.641.121,1.283.275,1.909.456a.162.162,0,0,1,.111.2.162.162,0,0,1-.2.111c-.616-.178-1.249-.329-1.88-.449a.162.162,0,0,1-.129-.19A.162.162,0,0,1,22.74-1.638Zm-11.062.92a.162.162,0,0,1,.152.106.162.162,0,0,1-.1.209c-.6.223-1.2.477-1.778.756A.162.162,0,0,1,9.814.06c.588-.283,1.2-.542,1.807-.768A.162.162,0,0,1,11.677-.718Zm14.8.163a.162.162,0,0,1,.06.011c.606.24,1.208.511,1.789.808a.162.162,0,1,1-.147.289c-.572-.292-1.165-.559-1.761-.8a.162.162,0,0,1-.091-.211A.162.162,0,0,1,26.478-.556ZM8.172.972a.162.162,0,0,1,.084.3c-.549.332-1.089.694-1.605,1.076a.162.162,0,0,1-.193-.261C6.982,1.7,7.531,1.332,8.088.995A.162.162,0,0,1,8.172.972Zm21.773.239a.162.162,0,0,1,.087.025c.55.349,1.091.729,1.606,1.129a.162.162,0,0,1-.2.257c-.508-.393-1.04-.767-1.581-1.111a.162.162,0,0,1,.087-.3ZM5.045,3.288a.162.162,0,0,1,.108.283c-.478.429-.941.885-1.377,1.356a.162.162,0,1,1-.238-.22c.443-.479.913-.942,1.4-1.378A.162.162,0,0,1,5.045,3.288ZM33.02,3.6a.162.162,0,0,1,.111.044c.476.446.936.92,1.368,1.408a.162.162,0,0,1-.243.215c-.425-.481-.878-.947-1.347-1.386A.162.162,0,0,1,33.02,3.6ZM2.4,6.145a.162.162,0,0,1,.129.261c-.39.51-.76,1.045-1.1,1.589a.162.162,0,0,1-.275-.172c.345-.553.721-1.1,1.117-1.614A.162.162,0,0,1,2.4,6.145ZM35.6,6.51a.162.162,0,0,1,.131.067c.385.527.749,1.078,1.082,1.638a.162.162,0,1,1-.279.166c-.328-.551-.686-1.094-1.065-1.613A.162.162,0,0,1,35.6,6.51ZM.342,9.446a.162.162,0,0,1,.145.235C.2,10.255-.063,10.849-.3,11.448a.162.162,0,0,1-.21.093A.162.162,0,0,1-.6,11.33c.235-.608.5-1.212.8-1.795A.162.162,0,0,1,.342,9.446Zm37.245.409a.162.162,0,0,1,.147.093c.279.59.533,1.2.755,1.812a.162.162,0,1,1-.305.111c-.218-.6-.469-1.2-.743-1.784a.162.162,0,0,1,.147-.232Zm-38.65,3.22a.162.162,0,0,1,.044.006.162.162,0,0,1,.112.2c-.174.617-.321,1.251-.436,1.883a.162.162,0,0,1-.189.131.162.162,0,0,1-.131-.189c.117-.642.266-1.285.443-1.913A.162.162,0,0,1-1.063,13.074Zm39.976.439a.162.162,0,0,1,.157.122c.163.631.3,1.277.4,1.922a.162.162,0,1,1-.321.051c-.1-.634-.234-1.271-.394-1.892a.163.163,0,0,1,.157-.2ZM-1.761,16.9h.014a.162.162,0,0,1,.148.176c-.051.59-.077,1.191-.077,1.787,0,.048,0,.1,0,.145a.162.162,0,0,1-.161.163h0A.162.162,0,0,1-2,19.013c0-.049,0-.1,0-.148,0-.6.026-1.215.078-1.814A.162.162,0,0,1-1.761,16.9Zm41.286.453a.162.162,0,0,1,.162.152c.029.449.043.906.043,1.358,0,.2,0,.4-.009.606a.162.162,0,0,1-.325-.009c.006-.2.008-.4.008-.6,0-.445-.014-.895-.043-1.337a.162.162,0,0,1,.152-.172ZM-1.733,20.794a.162.162,0,0,1,.161.146c.064.64.159,1.283.283,1.912a.162.162,0,0,1-.128.191.162.162,0,0,1-.191-.128c-.126-.639-.222-1.292-.288-1.942a.162.162,0,0,1,.145-.178Zm41.146.452h.02a.162.162,0,0,1,.141.181c-.079.648-.19,1.3-.33,1.935a.162.162,0,1,1-.317-.07c.138-.626.247-1.267.325-1.905A.162.162,0,0,1,39.413,21.246Zm-40.4,3.366a.162.162,0,0,1,.156.116c.183.615.4,1.229.638,1.824a.162.162,0,0,1-.09.211.162.162,0,0,1-.211-.09c-.244-.6-.462-1.228-.648-1.853a.162.162,0,0,1,.109-.2A.162.162,0,0,1-.982,24.612Zm39.56.434a.163.163,0,0,1,.155.212c-.2.621-.431,1.239-.689,1.838a.162.162,0,0,1-.3-.128c.254-.59.482-1.2.678-1.81A.162.162,0,0,1,38.578,25.046ZM.475,28.22a.162.162,0,0,1,.144.088c.3.569.621,1.132.97,1.672a.162.162,0,0,1-.273.176c-.354-.548-.685-1.12-.985-1.7a.162.162,0,0,1,.144-.237Zm36.567.4a.162.162,0,0,1,.142.24c-.313.572-.656,1.136-1.022,1.676a.162.162,0,1,1-.269-.182c.36-.532.7-1.087,1.006-1.65A.162.162,0,0,1,37.042,28.622ZM2.583,31.491a.162.162,0,0,1,.128.062c.4.5.822,1,1.265,1.461a.162.162,0,1,1-.235.224c-.449-.473-.881-.972-1.284-1.484a.162.162,0,0,1,.128-.263Zm32.279.354a.162.162,0,0,1,.125.266c-.414.5-.857.993-1.317,1.456a.162.162,0,0,1-.23-.229c.452-.456.888-.938,1.3-1.434A.162.162,0,0,1,34.862,31.845Zm-29.6,2.466a.162.162,0,0,1,.107.04c.484.422.994.826,1.514,1.2a.162.162,0,1,1-.19.264c-.529-.381-1.047-.791-1.538-1.22a.162.162,0,0,1,.107-.285Zm26.856.3a.162.162,0,0,1,.1.287c-.5.418-1.027.817-1.565,1.186a.162.162,0,1,1-.184-.268c.529-.363,1.047-.756,1.54-1.167A.162.162,0,0,1,32.12,34.607Zm-23.7,1.977a.162.162,0,0,1,.082.022c.554.324,1.13.626,1.712.9a.162.162,0,1,1-.137.294c-.591-.275-1.176-.581-1.739-.911a.162.162,0,0,1,.082-.3Zm20.488.225a.162.162,0,0,1,.079.3c-.57.317-1.162.61-1.759.872a.162.162,0,1,1-.13-.3c.588-.257,1.17-.546,1.731-.858A.162.162,0,0,1,28.912,36.809ZM11.952,38.223a.162.162,0,0,1,.054.009c.6.214,1.227.4,1.85.558a.162.162,0,0,1-.079.315c-.633-.158-1.265-.349-1.88-.567a.162.162,0,0,1,.054-.315Zm13.4.147a.162.162,0,0,1,.051.317c-.619.2-1.256.381-1.892.525a.162.162,0,1,1-.072-.317c.626-.142,1.252-.316,1.862-.517A.162.162,0,0,1,25.348,38.37Zm-9.621.8.025,0c.633.1,1.28.164,1.922.2a.162.162,0,1,1-.019.324c-.652-.037-1.309-.106-1.952-.2a.162.162,0,0,1,.024-.323Zm5.827.063a.162.162,0,0,1,.021.323c-.645.084-1.3.138-1.956.161a.162.162,0,0,1-.012-.325c.643-.023,1.291-.076,1.926-.158Z" transform="translate(6.546 6.547)" fill="#abd1ff"/>
    </g>
    <path id="Path_1515" data-name="Path 1515" d="M-8116.272,18372.061h-23.361a3.174,3.174,0,0,1-3.172-3.174,3.172,3.172,0,0,1,3.172-3.172h23.361a3.172,3.172,0,0,1,3.173,3.172A3.174,3.174,0,0,1-8116.272,18372.061Z" transform="translate(9080.212 -18144.137)" fill="#b0c8f7"/>
    <path id="Path_1519" data-name="Path 1519" d="M-8090.013,18372.061h-49.621a3.174,3.174,0,0,1-3.172-3.174,3.172,3.172,0,0,1,3.172-3.172h49.621a3.172,3.172,0,0,1,3.173,3.172A3.174,3.174,0,0,1-8090.013,18372.061Z" transform="translate(9114.383 -18144.137)" fill="#ffd72e"/>
    <path id="Path_1520" data-name="Path 1520" d="M-8054.607,18372.061h-85.026a3.174,3.174,0,0,1-3.172-3.174,3.172,3.172,0,0,1,3.172-3.172h85.026a3.172,3.172,0,0,1,3.173,3.172A3.174,3.174,0,0,1-8054.607,18372.061Z" transform="translate(9173.435 -18144.137)" fill="#b0c8f7"/>
    <path id="Path_1516" data-name="Path 1516" d="M-8084.974,18372.061h-54.659a3.174,3.174,0,0,1-3.172-3.174,3.172,3.172,0,0,1,3.172-3.172h54.659a3.172,3.172,0,0,1,3.173,3.172A3.174,3.174,0,0,1-8084.974,18372.061Z" transform="translate(9080.212 -18128.84)" fill="#798eae"/>
    <path id="Path_1517" data-name="Path 1517" d="M-8084.974,18372.061h-54.659a3.174,3.174,0,0,1-3.172-3.174,3.172,3.172,0,0,1,3.172-3.172h54.659a3.172,3.172,0,0,1,3.173,3.172A3.174,3.174,0,0,1-8084.974,18372.061Z" transform="translate(9080.212 -18100.852)" fill="#798eae"/>
    <path id="Path_1518" data-name="Path 1518" d="M-8124.711,18372.061h-14.922a3.174,3.174,0,0,1-3.172-3.174,3.172,3.172,0,0,1,3.172-3.172h14.922a3.172,3.172,0,0,1,3.173,3.172A3.174,3.174,0,0,1-8124.711,18372.061Z" transform="translate(9144.461 -18100.852)" fill="#0e4fc6"/>
    <path id="Path_1524" data-name="Path 1524" d="M0,14.26.352,0,10.674,3.222Z" transform="translate(879.848 306.48) rotate(11)" fill="#ffd72e"/>
    <path id="Path_1525" data-name="Path 1525" d="M0,17,.594,0,11.718,8.685Z" transform="matrix(0.629, 0.777, -0.777, 0.629, 1087.45, 187.511)" fill="#0e4fc6"/>
    <path id="Path_1534" data-name="Path 1534" d="M0,7.01,4.12,0,8.77,6.817Z" transform="matrix(0.629, 0.777, -0.777, 0.629, 1079.687, 177.951)" fill="#68c969"/>
    <circle id="Ellipse_447" data-name="Ellipse 447" cx="4" cy="4" r="4" transform="translate(1063 349)" fill="#ffb05a"/>
    <circle id="Ellipse_448" data-name="Ellipse 448" cx="2.5" cy="2.5" r="2.5" transform="translate(1050 342)" fill="#4a4a4a"/>
    <ellipse id="Ellipse_450" data-name="Ellipse 450" cx="2" cy="2.5" rx="2" ry="2.5" transform="translate(886 181)" fill="#64b2ff"/>
    <circle id="Ellipse_449" data-name="Ellipse 449" cx="5.5" cy="5.5" r="5.5" transform="translate(892 157)" fill="#4a4a4a"/>
    <path id="Path_1526" data-name="Path 1526" d="M1.984,11.442H1.949A1.983,1.983,0,0,1,0,9.425,12.739,12.739,0,0,1,.474,6.461,9.049,9.049,0,0,1,3.81,1.382,7.621,7.621,0,0,1,7.625.032C7.88.011,8.142,0,8.409,0a13.456,13.456,0,0,1,4.243.764,1.983,1.983,0,1,1-1.259,3.761c-2.322-.777-4.1-.746-5.294.095A5.307,5.307,0,0,0,4.293,7.532a9.056,9.056,0,0,0-.327,1.961A1.984,1.984,0,0,1,1.984,11.442Z" transform="translate(865.524 281.888) rotate(-6)" fill="#cc7ffa"/>
    <g id="Group_2079" data-name="Group 2079" transform="translate(939.389 297.425)">
      <path id="Path_1530" data-name="Path 1530" d="M-8137.619,18574.734h-9.583a1.188,1.188,0,0,1-1.189-1.189,1.188,1.188,0,0,1,1.189-1.189h9.583a1.189,1.189,0,0,1,1.19,1.189A1.189,1.189,0,0,1-8137.619,18574.734Z" transform="translate(8148.392 -18572.355)" fill="#798eae"/>
      <path id="Path_1531" data-name="Path 1531" d="M-8142.745,18574.734h-4.458a1.188,1.188,0,0,1-1.189-1.189,1.188,1.188,0,0,1,1.189-1.189h4.458a1.189,1.189,0,0,1,1.19,1.189A1.189,1.189,0,0,1-8142.745,18574.734Z" transform="translate(8164.004 -18572.355)" fill="#798eae"/>
      <path id="Path_1532" data-name="Path 1532" d="M-8142.745,18574.734h-4.458a1.188,1.188,0,0,1-1.189-1.189,1.188,1.188,0,0,1,1.189-1.189h4.458a1.189,1.189,0,0,1,1.19,1.189A1.189,1.189,0,0,1-8142.745,18574.734Z" transform="translate(8148.392 -18567.498)" fill="#798eae"/>
      <path id="Path_1533" data-name="Path 1533" d="M-8134.5,18574.734h-12.7a1.188,1.188,0,0,1-1.189-1.189,1.188,1.188,0,0,1,1.189-1.189h12.7a1.189,1.189,0,0,1,1.19,1.189A1.189,1.189,0,0,1-8134.5,18574.734Z" transform="translate(8148.392 -18562.643)" fill="#798eae"/>
    </g>
  </g>
</svg>
