<svg xmlns="http://www.w3.org/2000/svg" width="210.783" height="219" viewBox="0 0 210.783 219">
  <g id="Group_2285" data-name="Group 2285" transform="translate(-252 -1953)">
    <rect id="Rectangle_486" data-name="Rectangle 486" width="154" height="219" rx="8" transform="translate(252 1953)" fill="#ebe8fd"/>
    <path id="Rectangle_487" data-name="Rectangle 487" d="M9.688-1.5h83.4A11.2,11.2,0,0,1,104.274,9.688V131.735a11.2,11.2,0,0,1-11.188,11.188H9.688A11.2,11.2,0,0,1-1.5,131.735V9.688A11.2,11.2,0,0,1,9.688-1.5Zm83.4,138.32a5.091,5.091,0,0,0,5.085-5.085V9.688A5.091,5.091,0,0,0,93.087,4.6H9.688A5.091,5.091,0,0,0,4.6,9.688V131.735a5.091,5.091,0,0,0,5.085,5.085Z" transform="translate(338.608 1993)" fill="#111"/>
    <path id="Path_1453" data-name="Path 1453" d="M985.3,806h39.8v33.489l-19.583,19.583L985.3,838.853Z" transform="translate(-565.367 1204.64)" fill="#b6adf4"/>
    <path id="Path_1453_-_Outline" data-name="Path 1453 - Outline" d="M986.849,804.5h39.8a3.051,3.051,0,0,1,3.051,3.051V841.04a3.051,3.051,0,0,1-.894,2.158l-19.583,19.583a3.051,3.051,0,0,1-4.315,0l-20.218-20.218a3.051,3.051,0,0,1-.894-2.157V807.551A3.051,3.051,0,0,1,986.849,804.5Zm36.75,6.1H989.9v28.538l17.167,17.167,16.532-16.532Z" transform="translate(-566.918 1203.089)" fill="#111"/>
    <path id="Path_1631" data-name="Path 1631" d="M16.273,0A16.273,16.273,0,1,1,0,16.273,16.273,16.273,0,0,1,16.273,0Z" transform="translate(423.559 2063.711)" fill="#7768de"/>
    <path id="Ellipse_440_-_Outline" data-name="Ellipse 440 - Outline" d="M17.824-1.5A19.324,19.324,0,1,1-1.5,17.824,19.346,19.346,0,0,1,17.824-1.5Zm0,32.546A13.222,13.222,0,1,0,4.6,17.824,13.237,13.237,0,0,0,17.824,31.046Z" transform="translate(422.007 2062.16)" fill="#111"/>
  </g>
</svg>
