<svg id="Group_2333" data-name="Group 2333" xmlns="http://www.w3.org/2000/svg" xmlns:xlink="http://www.w3.org/1999/xlink" width="460" height="259.941" viewBox="0 0 460 259.941">
  <defs>
    <clipPath id="clip-path">
      <rect id="Rectangle_660" data-name="Rectangle 660" width="460" height="259.941" fill="none"/>
    </clipPath>
  </defs>
  <g id="Group_2332" data-name="Group 2332" clip-path="url(#clip-path)">
    <path id="Path_1643" data-name="Path 1643" d="M13.06,64.987h-.769C10.828,67.248,6.549,69.941,0,70.834v49.6H13.06Z" fill="#f0b32a"/>
    <path id="Path_1644" data-name="Path 1644" d="M8,2.5a8,8,0,0,0-8,8V56.64c8.052-1.985,13.212-8.817,13.384-13.108H30.548v76.906H220V2.5Z" fill="#f0b32a"/>
    <path id="Path_1645" data-name="Path 1645" d="M452,2.5H240V120.438h18.72v-6.63l29.51-27.325c7.531-7.246,11.579-11.78,11.579-18.379,0-7.287-5.424-11.82-12.711-11.82-7.571,0-12.59,4.857-12.549,12.792H257.91C257.869,52.8,269.813,42.4,287.219,42.4c17.771,0,29.511,10.161,29.511,24.532,0,9.432-4.574,17.2-21.617,32.749l-12.1,11.862v.567h34.814v8.33H460V10.5a8,8,0,0,0-8-8" fill="#77b4f2"/>
    <path id="Path_1646" data-name="Path 1646" d="M433.258,248.865H393.465V235.06l34.611-54.529h21.942v54.287H460v-94.38H240V258.376H433.258Z" fill="#f2c8ca"/>
    <path id="Path_1647" data-name="Path 1647" d="M411.115,234.17v.648h22.467V199.639h-.648Z" fill="#f2c8ca"/>
    <path id="Path_1648" data-name="Path 1648" d="M450.018,248.865v9.511H452a8,8,0,0,0,8-8v-1.511Z" fill="#f2c8ca"/>
    <path id="Path_1649" data-name="Path 1649" d="M218.561,220.285v.646c.494.063.963.15,1.438.231v-1.188c-.472.115-.949.223-1.438.311" fill="#b6adf4"/>
    <path id="Path_1650" data-name="Path 1650" d="M173.91,240h17.65c.324,6.072,6.113,10.119,13.845,10.119,8.015,0,13.683-4.533,13.642-11.133.041-6.677-5.829-11.375-15.221-11.375h-7.732V214.738h7.732c7.975,0,13.521-4.412,13.48-10.929.041-6.235-4.7-10.526-11.78-10.526-7.165,0-12.954,4.088-13.156,10.4h-16.8c.243-14.33,13.035-24.289,30.037-24.289A35.4,35.4,0,0,1,220,182.252V140.438H0V250.376a8,8,0,0,0,8,8H183.8A22.709,22.709,0,0,1,173.91,240" fill="#b6adf4"/>
    <path id="Path_1651" data-name="Path 1651" d="M220.571,259.941a2.5,2.5,0,0,1-2.5-2.5V2.5a2.5,2.5,0,0,1,5,0V257.441a2.5,2.5,0,0,1-2.5,2.5" fill="#111"/>
    <path id="Path_1652" data-name="Path 1652" d="M297.97,140.438a2.5,2.5,0,0,1-2.5,2.5H40.529a2.5,2.5,0,0,1,0-5H295.47a2.5,2.5,0,0,1,2.5,2.5" fill="#111"/>
  </g>
</svg>
